<svg viewBox="0 0 36 36" fill="none" xmlns="http://www.w3.org/2000/svg"><path d="M.632 17.762c0 9.45 7.722 17.11 17.258 17.11 9.536 0 17.267-7.66 17.267-17.11S27.427.652 17.89.652C8.354.653.632 8.313.632 17.763z" fill="#000"/><path fill-rule="evenodd" clip-rule="evenodd" d="M17.89 34.872c-.504 0-1.003-.021-1.496-.063v-5.083c-1.729-.256-1.935-1.313-1.935-3.63v-4.891l7.266-14.417c.61-1.16 1.221-1.918 2.038-2.165V1.668c5.262 1.885 9.335 6.233 10.802 11.638h-1.55v4.865c1.35.239 1.635 1.134 1.635 3.042v.683a16.914 16.914 0 01-1.79 4.4l-5.863-12.999H19.05v4.866c1.307.29 1.557 1.056 1.557 2.599v13.9c-.886.138-1.793.21-2.718.21zm9.107-2.57c.709-.437 1.384-.924 2.02-1.455l-2.02-4.521v5.976zM7.51 4.091a17.248 17.248 0 016.545-3.015v2.09c0 1.517-.146 2.872-.809 4.184l-2.493 4.985-2.545-5.19c-.506-1.073-.656-2.062-.698-3.054zM4.989 29.129c.56-.557.776-1.492.776-2.94v-4.533l-4.388-8.881a16.98 16.98 0 00-.745 4.987c0 4.363 1.646 8.345 4.357 11.367z" fill="#EB6418"/><path d="M.262 17.763C.262 8.109 8.164.278 17.907.278c9.743 0 17.645 7.83 17.645 17.485 0 9.654-7.902 17.484-17.645 17.484-9.743 0-17.645-7.83-17.645-17.484zM5.86 5.825A16.764 16.764 0 00.872 17.763c0 4.66 1.91 8.878 4.988 11.937a17.089 17.089 0 0012.047 4.942c4.704 0 8.96-1.891 12.047-4.942 3.078-3.059 4.987-7.276 4.987-11.937s-1.909-8.879-4.987-11.938A17.022 17.022 0 0017.907.883c-4.704 0-8.96 1.892-12.047 4.942z" fill="#EB6418"/></svg>